<?xml version="1.0" encoding="utf-8"?>
<svg version="1.1" xmlns="http://www.w3.org/2000/svg" xmlns:xlink="http://www.w3.org/1999/xlink" x="0px" y="0px" viewBox="0 0 64 64" style="enable-background:new 0 0 64 64;" xml:space="preserve">
<style type="text/css">
	.st0{fill:#3b8dbb; stroke:#3b8dbb; stroke-miterlimit:10;}
	.st1{fill:#FFFFFF; stroke:#3b8dbb; stroke-miterlimit:10;}
</style>
<g>
	<polygon class="st0" points="47.273,32.683 53.173,51.783 6.073,62.483 11.523,57.917 10.173,25.183 17.273,54.183"/>
</g>
<g>
	<path class="st1" d="M10.173,25.183"/>
	<g class="st1">
		<path d="M57.373,17.683l-13.8-14.7l-38.8,25.8v33.7l6.9-4.6l-1.5-32.7l7.1,29l38.7-25.4 C59.173,26.383,60.673,22.183,57.373,17.683z"/>
		<path d="M57.373,17.683l-13.8-14.7l-38.8,25.8v33.7l6.9-4.6l-1.5-32.7l7.1,29l38.7-25.4 C59.173,26.383,60.673,22.183,57.373,17.683z"/>
		<path d="M57.373,17.683l-13.8-14.7l-38.8,25.8v33.7l6.9-4.6l-1.5-32.7l7.1,29l38.7-25.4 C59.173,26.383,60.673,22.183,57.373,17.683z"/>
	</g>
</g>
<g class="st0">
	<path d="M53.173,27.583l-5.9-9c0,0-2.5,3.3-0.5,6.6S53.173,27.583,53.173,27.583z"/>
</g>
<g class="st1">
	<path d="M57.973,18.683l-14.4-15.7c-4.6-4-8.2,1.1-6.6,4.4l9.8,17.8 C43.373,18.983,51.573,11.883,57.973,18.683z"/>
	<path d="M57.973,18.683l-14.4-15.7c-4.6-4-8.2,1.1-6.6,4.4l9.8,17.8 C43.373,18.983,51.573,11.883,57.973,18.683z"/>
	<path d="M57.973,18.683l-14.4-15.7c-4.6-4-8.2,1.1-6.6,4.4l9.8,17.8 C43.373,18.983,51.573,11.883,57.973,18.683z"/>
</g>
</svg>
