<?xml version="1.0" encoding="utf-8"?>
<svg version="1.1" xmlns="http://www.w3.org/2000/svg" xmlns:xlink="http://www.w3.org/1999/xlink" x="0px" y="0px" viewBox="0 0 160 48" style="enable-background:new 0 0 160 48;" xml:space="preserve">
<style type="text/css">
	.st0{fill:#3b8dbb;}
</style>
<g class="st0">
	<path d="M12.691,10.586h9.499v2.526c-0.617,2.823-1.364,5.823-2.241,9.001
		c1.423,3.012,2.206,5.633,2.348,7.862c0,1.59-0.297,2.716-0.889,3.38c-0.878,0.878-2.313,1.329-4.305,1.352l-0.997-3.095
		c1.139,0.095,1.862,0.143,2.17,0.143c0.356-0.071,0.605-0.214,0.747-0.427c0.143-0.285,0.213-0.735,0.213-1.353
		c0-2.182-0.783-4.637-2.348-7.364c0.997-3.51,1.731-6.522,2.206-9.037h-3.309v28.318h-3.095V10.586z M44.248,38.478l-0.818,3.166
		h-6.617c-0.664,0-1.661-0.023-2.988-0.07c-1.495-0.048-2.811-0.262-3.949-0.641c-1.115-0.427-2.063-1.115-2.846-2.063
		c-0.404-0.475-0.771-0.712-1.103-0.712c-0.617,0-1.874,1.353-3.771,4.056l-1.957-2.562c1.636-2.205,3.071-3.651,4.305-4.34V24.069
		H21.87v-2.988h5.764v14.8c0.64,0.782,1.435,1.423,2.383,1.921c0.997,0.38,2.099,0.604,3.309,0.676l1.885,0.036l1.85,0.035
		C38.816,38.549,41.211,38.525,44.248,38.478z M27.953,16.954l-2.49,1.708c-0.688-1.66-1.672-3.593-2.953-5.799l2.455-1.53
		C26.269,13.444,27.265,15.317,27.953,16.954z M28.558,12.542h4.803c0.214-0.948,0.392-1.992,0.534-3.131l3.273,0.427l-0.285,1.387
		l-0.285,1.316h7.364v3.06H35.78c-0.261,0.807-0.605,1.779-1.032,2.917h7.969v15.725c0,1.803-0.949,2.739-2.846,2.811h-2.384
		l-0.783-2.847c1.043,0.096,1.779,0.143,2.206,0.143c0.545,0,0.818-0.355,0.818-1.067v-1.992h-5.372v5.87h-2.846V24.532
		c-0.736,0.925-1.447,1.696-2.135,2.313l-1.708-2.206c2.158-2.372,3.794-5.384,4.909-9.037h-4.02V12.542z M39.729,23.643v-2.49
		h-5.372v2.49H39.729z M34.357,26.311v2.277h5.372v-2.277H34.357z"/>
	<path d="M76.872,12.471c-3.202,0.854-6.902,1.495-11.1,1.921v5.159h11.029v3.273H65.772v5.052h13.697
		v3.237H65.772v7.293c0,2.349-1.234,3.522-3.7,3.522h-5.514l-0.783-3.273c1.968,0.119,3.676,0.178,5.123,0.178
		c0.996,0,1.494-0.414,1.494-1.245v-6.475H47.414v-3.237h14.978v-5.052H50.367v-3.273h12.025v-4.874
		c-3.795,0.261-7.697,0.391-11.705,0.391l-1.067-3.06c10.056,0,18.583-0.794,25.58-2.384L76.872,12.471z"/>
	<path d="M118.022,24.816h7.934c-0.332-1.043-0.628-1.897-0.889-2.562l3.451-0.534
		c0.284,0.925,0.568,1.957,0.854,3.095h7.364v3.095h-8.895c-0.45,0.831-0.948,1.601-1.494,2.313v7.507
		c1.494-0.569,2.918-1.174,4.27-1.814l0.533,3.06c-2.396,1.044-5.253,2.004-8.573,2.882l-0.747-2.882
		c0.9-0.332,1.352-0.854,1.352-1.565v-4.091c-1.21,0.925-2.574,1.803-4.092,2.633l-1.814-2.953c3.345-1.565,5.704-3.261,7.08-5.088
		h-6.333V24.816z M120.122,12.08h6.013V9.27h3.272v2.811h6.19v3.06h-6.19v2.988h8.503c-0.119-2.277-0.178-5.229-0.178-8.858h3.202
		c0,3.677,0.059,6.629,0.178,8.858h8.609v3.202h-8.432c0.189,3.226,0.521,6.202,0.996,8.93c1.281-2.277,2.301-4.755,3.06-7.436
		l3.06,1.316c-1.257,4.15-2.905,7.637-4.945,10.459c0.854,2.372,1.803,3.629,2.847,3.771c0.498-0.071,1.031-1.743,1.601-5.017
		l2.669,2.17c-1.21,4.316-2.633,6.476-4.27,6.476c-1.59,0-3.001-0.938-4.233-2.811c-0.356-0.569-0.677-1.174-0.961-1.814
		c-1.969,2.016-4.222,3.581-6.76,4.696l-1.85-2.704c2.869-1.281,5.301-3.118,7.293-5.515c-0.284-1.043-0.546-2.229-0.782-3.558
		c-0.428-2.537-0.747-5.525-0.961-8.965h-20.101v-3.202h8.183V15.14h-6.013V12.08z M132.396,31.291
		c0.973-1.067,1.767-2.039,2.384-2.917l2.349,1.778c-0.831,1.067-1.779,2.123-2.847,3.167c0.569,0.64,1.15,1.352,1.743,2.135
		l-2.348,2.348c-1.423-2.253-3.451-4.672-6.084-7.258l2.028-1.956C130.712,29.607,131.637,30.509,132.396,31.291z M148.726,15.709
		l-2.49,1.779c-0.996-1.921-2.348-4.02-4.056-6.297l2.419-1.53C146.401,12.009,147.777,14.025,148.726,15.709z"/>
	<path d="M91.325,29.398v1.085c0,1.709,0.419,3.04,1.26,3.996c0.839,0.955,1.939,1.433,3.3,1.433
		c1.419,0,2.889-0.332,4.408-0.999c1.521-0.665,3.033-1.548,4.538-2.648c1.506-1.101,3.345-2.577,5.516-4.43v2.648
		c-3.271,3.938-6.34,6.956-9.207,9.056c-2.866,2.099-5.775,3.148-8.729,3.148c-2.577,0-4.619-0.999-6.124-2.997
		c-1.506-1.997-2.258-4.733-2.258-8.208c0-3.04,0.709-5.798,2.128-8.272c1.418-2.476,3.734-5.088,6.948-7.839
		c2.2-1.882,4.387-3.301,6.558-4.256c2.172-0.955,4.111-1.433,5.82-1.433c1.36,0,2.438,0.312,3.235,0.934
		c0.796,0.623,1.194,1.557,1.194,2.801c0,1.824-0.681,3.641-2.042,5.45c-1.36,1.81-3.438,3.605-6.231,5.385
		C98.845,26.032,95.407,27.748,91.325,29.398z M91.76,26.575c2.605-1.013,4.835-2.272,6.688-3.778
		c1.853-1.505,3.221-2.946,4.104-4.321c0.883-1.375,1.324-2.381,1.324-3.018c0-0.666-0.304-0.999-0.912-0.999
		c-0.521,0-1.368,0.333-2.54,0.999c-1.173,0.666-2.36,1.535-3.562,2.605c-1.202,1.071-2.28,2.331-3.235,3.778
		C92.672,23.29,92.049,24.868,91.76,26.575z"/>
</g>
</svg>
